<?xml version="1.0" encoding="us-ascii" standalone="no"?><svg xmlns="http://www.w3.org/2000/svg" xmlns:xlink="http://www.w3.org/1999/xlink" contentStyleType="text/css" height="388px" preserveAspectRatio="none" style="width:574px;height:388px;background:#FFFFFF;" version="1.1" viewBox="0 0 574 388" width="574px" zoomAndPan="magnify"><defs/><g><!--class Task--><g id="elem_Task"><rect codeLine="2" fill="#F1F1F1" height="97.4648" id="Task" rx="2.5" ry="2.5" style="stroke:#181818;stroke-width:0.5;" width="111" x="271.5" y="283.91"/><ellipse cx="307.65" cy="299.91" fill="#ADD1B2" rx="11" ry="11" style="stroke:#181818;stroke-width:1.0;"/><path d="M310.1231,306.0531 Q309.5421,306.3519 308.9029,306.5013 Q308.2638,306.6507 307.5582,306.6507 Q305.0514,306.6507 303.7315,304.9989 Q302.4117,303.347 302.4117,300.2259 Q302.4117,297.0965 303.7315,295.4447 Q305.0514,293.7928 307.5582,293.7928 Q308.2638,293.7928 308.9112,293.9422 Q309.5587,294.0916 310.1231,294.3905 L310.1231,297.1131 Q309.4923,296.5321 308.8988,296.2623 Q308.3053,295.9925 307.6744,295.9925 Q306.3297,295.9925 305.6449,297.0592 Q304.9601,298.1258 304.9601,300.2259 Q304.9601,302.3177 305.6449,303.3844 Q306.3297,304.451 307.6744,304.451 Q308.3053,304.451 308.8988,304.1812 Q309.4923,303.9115 310.1231,303.3304 Z " fill="#000000"/><text fill="#000000" font-family="sans-serif" font-size="14" lengthAdjust="spacing" textLength="32" x="326.35" y="305.201">Task</text><line style="stroke:#181818;stroke-width:0.5;" x1="272.5" x2="381.5" y1="315.91" y2="315.91"/><rect fill="none" height="6" style="stroke:#C82930;stroke-width:1.0;" width="6" x="279.5" y="326.6541"/><text fill="#000000" font-family="sans-serif" font-size="14" lengthAdjust="spacing" textLength="55" x="291.5" y="333.4452">id: UUID</text><rect fill="none" height="6" style="stroke:#C82930;stroke-width:1.0;" width="6" x="279.5" y="343.1424"/><text fill="#000000" font-family="sans-serif" font-size="14" lengthAdjust="spacing" textLength="76" x="291.5" y="349.9334">text: String</text><rect fill="none" height="6" style="stroke:#C82930;stroke-width:1.0;" width="6" x="279.5" y="359.6307"/><text fill="#000000" font-family="sans-serif" font-size="14" lengthAdjust="spacing" textLength="85" x="291.5" y="366.4217">isDone: Bool</text><line style="stroke:#181818;stroke-width:0.5;" x1="272.5" x2="381.5" y1="373.3748" y2="373.3748"/></g><!--class Event--><g id="elem_Event"><rect codeLine="8" fill="#F1F1F1" height="179.9063" id="Event" rx="2.5" ry="2.5" style="stroke:#181818;stroke-width:0.5;" width="146" x="254" y="7"/><ellipse cx="304.25" cy="23" fill="#ADD1B2" rx="11" ry="11" style="stroke:#181818;stroke-width:1.0;"/><path d="M306.7231,29.1431 Q306.1421,29.4419 305.5029,29.5913 Q304.8638,29.7407 304.1582,29.7407 Q301.6514,29.7407 300.3315,28.0889 Q299.0117,26.437 299.0117,23.3159 Q299.0117,20.1865 300.3315,18.5347 Q301.6514,16.8828 304.1582,16.8828 Q304.8638,16.8828 305.5112,17.0322 Q306.1587,17.1816 306.7231,17.4805 L306.7231,20.2031 Q306.0923,19.6221 305.4988,19.3523 Q304.9053,19.0825 304.2744,19.0825 Q302.9297,19.0825 302.2449,20.1492 Q301.5601,21.2158 301.5601,23.3159 Q301.5601,25.4077 302.2449,26.4744 Q302.9297,27.541 304.2744,27.541 Q304.9053,27.541 305.4988,27.2712 Q306.0923,27.0015 306.7231,26.4204 Z " fill="#000000"/><text fill="#000000" font-family="sans-serif" font-size="14" lengthAdjust="spacing" textLength="37" x="324.75" y="28.291">Event</text><line style="stroke:#181818;stroke-width:0.5;" x1="255" x2="399" y1="39" y2="39"/><rect fill="none" height="6" style="stroke:#C82930;stroke-width:1.0;" width="6" x="262" y="49.7441"/><text fill="#000000" font-family="sans-serif" font-size="14" lengthAdjust="spacing" textLength="75" x="274" y="56.5352">title: String</text><rect fill="none" height="6" style="stroke:#C82930;stroke-width:1.0;" width="6" x="262" y="66.2324"/><text fill="#000000" font-family="sans-serif" font-size="14" lengthAdjust="spacing" textLength="98" x="274" y="73.0234">subject: String</text><rect fill="none" height="6" style="stroke:#C82930;stroke-width:1.0;" width="6" x="262" y="82.7207"/><text fill="#000000" font-family="sans-serif" font-size="14" lengthAdjust="spacing" textLength="69" x="274" y="89.5117">date: Date</text><rect fill="none" height="6" style="stroke:#C82930;stroke-width:1.0;" width="6" x="262" y="99.209"/><text fill="#000000" font-family="sans-serif" font-size="14" lengthAdjust="spacing" textLength="107" x="274" y="106">type: EventType</text><rect fill="none" height="6" style="stroke:#C82930;stroke-width:1.0;" width="6" x="262" y="115.6973"/><text fill="#000000" font-family="sans-serif" font-size="14" lengthAdjust="spacing" textLength="91" x="274" y="122.4883">status: Status</text><rect fill="none" height="6" style="stroke:#C82930;stroke-width:1.0;" width="6" x="262" y="132.1855"/><text fill="#000000" font-family="sans-serif" font-size="14" lengthAdjust="spacing" textLength="120" x="274" y="138.9766">tasks: List&lt;Task&gt;</text><rect fill="none" height="6" style="stroke:#C82930;stroke-width:1.0;" width="6" x="262" y="148.6738"/><text fill="#000000" font-family="sans-serif" font-size="14" lengthAdjust="spacing" textLength="111" x="274" y="155.4648">type : EventType</text><rect fill="none" height="6" style="stroke:#C82930;stroke-width:1.0;" width="6" x="262" y="165.1621"/><text fill="#000000" font-family="sans-serif" font-size="14" lengthAdjust="spacing" textLength="95" x="274" y="171.9531">status : Status</text><line style="stroke:#181818;stroke-width:0.5;" x1="255" x2="399" y1="178.9063" y2="178.9063"/></g><!--class EventType--><g id="elem_EventType"><rect codeLine="17" fill="#F1F1F1" height="113.9531" id="EventType" rx="2.5" ry="2.5" style="stroke:#181818;stroke-width:0.5;" width="102" x="465" y="39.98"/><ellipse cx="480" cy="55.98" fill="#EB937F" rx="11" ry="11" style="stroke:#181818;stroke-width:1.0;"/><path d="M483.6143,62.48 L475.8945,62.48 L475.8945,50.0869 L483.6143,50.0869 L483.6143,52.2451 L478.3433,52.2451 L478.3433,54.918 L483.1162,54.918 L483.1162,57.0762 L478.3433,57.0762 L478.3433,60.3218 L483.6143,60.3218 Z " fill="#000000"/><text fill="#000000" font-family="sans-serif" font-size="14" lengthAdjust="spacing" textLength="70" x="494" y="61.271">EventType</text><line style="stroke:#181818;stroke-width:0.5;" x1="466" x2="566" y1="71.98" y2="71.98"/><text fill="#000000" font-family="sans-serif" font-size="14" lengthAdjust="spacing" textLength="52" x="471" y="89.5152">general</text><text fill="#000000" font-family="sans-serif" font-size="14" lengthAdjust="spacing" textLength="48" x="471" y="106.0034">project</text><text fill="#000000" font-family="sans-serif" font-size="14" lengthAdjust="spacing" textLength="58" x="471" y="122.4917">midterm</text><text fill="#000000" font-family="sans-serif" font-size="14" lengthAdjust="spacing" textLength="30" x="471" y="138.98">final</text><line style="stroke:#181818;stroke-width:0.5;" x1="466" x2="566" y1="145.9331" y2="145.9331"/></g><!--class Status--><g id="elem_Status"><rect codeLine="24" fill="#F1F1F1" height="113.9531" id="Status" rx="2.5" ry="2.5" style="stroke:#181818;stroke-width:0.5;" width="188" x="7" y="39.98"/><ellipse cx="75.75" cy="55.98" fill="#EB937F" rx="11" ry="11" style="stroke:#181818;stroke-width:1.0;"/><path d="M79.3643,62.48 L71.6445,62.48 L71.6445,50.0869 L79.3643,50.0869 L79.3643,52.2451 L74.0933,52.2451 L74.0933,54.918 L78.8662,54.918 L78.8662,57.0762 L74.0933,57.0762 L74.0933,60.3218 L79.3643,60.3218 Z " fill="#000000"/><text fill="#000000" font-family="sans-serif" font-size="14" lengthAdjust="spacing" textLength="42" x="96.25" y="61.271">Status</text><line style="stroke:#181818;stroke-width:0.5;" x1="8" x2="194" y1="71.98" y2="71.98"/><text fill="#000000" font-family="sans-serif" font-size="14" lengthAdjust="spacing" textLength="69" x="27" y="89.5152">upcoming</text><text fill="#000000" font-family="sans-serif" font-size="14" lengthAdjust="spacing" textLength="73" x="27" y="106.0034">inProgress</text><text fill="#000000" font-family="sans-serif" font-size="14" lengthAdjust="spacing" textLength="35" x="27" y="122.4917">done</text><rect fill="none" height="6" style="stroke:#C82930;stroke-width:1.0;" width="6" x="15" y="132.189"/><text fill="#000000" font-family="sans-serif" font-size="14" lengthAdjust="spacing" textLength="162" x="27" y="138.98">description: String {get}</text><line style="stroke:#181818;stroke-width:0.5;" x1="8" x2="194" y1="145.9331" y2="145.9331"/></g><!--link Event to EventType--><g id="link_Event_EventType"><path codeLine="30" d="M400.34,96.96 C421.82,96.96 444.84,96.96 464.64,96.96 " fill="none" id="Event-EventType" style="stroke:#181818;stroke-width:1.0;"/><text fill="#000000" font-family="sans-serif" font-size="13" lengthAdjust="spacing" textLength="28" x="418.5" y="90.5284">is of</text></g><!--link Status to Event--><g id="link_Status_Event"><path codeLine="31" d="M195.21,96.96 C214.71,96.96 234.98,96.96 253.6,96.96 " fill="none" id="Status-Event" style="stroke:#181818;stroke-width:1.0;"/><text fill="#000000" font-family="sans-serif" font-size="13" lengthAdjust="spacing" textLength="22" x="213.5" y="90.5284">has</text></g><!--reverse link Event to Task--><g id="link_Event_Task"><path codeLine="34" d="M327,199.21 C327,232.17 327,256.22 327,284.03 " fill="none" id="Event-backto-Task" style="stroke:#181818;stroke-width:1.0;"/><polygon fill="#181818" points="327,187.21,323,193.21,327,199.21,331,193.21,327,187.21" style="stroke:#181818;stroke-width:1.0;"/><text fill="#000000" font-family="sans-serif" font-size="13" lengthAdjust="spacing" textLength="54" x="328" y="230.4784">contains</text><text fill="#000000" font-family="sans-serif" font-size="13" lengthAdjust="spacing" textLength="8" x="318.6813" y="207.5807">1</text><text fill="#000000" font-family="sans-serif" font-size="13" lengthAdjust="spacing" textLength="34" x="290.3969" y="273.0299">many</text></g><!--SRC=[NL71RiCW3Btp5HR7IZdiYgOUfkmmQOT9RJ-04ITZ8n1XPrfLzTy72QHLEO2D_PuV3-Cq4Hmr_S15G5eDs4x1wVJMbfJnZnKSE5e_r0vgWqS5Bo4uSHN2B2Ill-XvOs7B3XzmD7z-etbawpIdnZRj5NgUqiL2TqnX1RFccJ8sdxKr2KztxvRuEJzYd-MWdySRl2WQq6FKRecd6BAE9HvjnnZ79UwjrsvZM0SL-3oPC5RDrd_4C4IaLKQNpCYerO3cRhG2QGb2BslDOSzDPKxLBqrIY2rFPY2PQ2UsmLURu38WNmk3V9AmQngGe_PdkNwS0XCyQ-kfDAbY8joxU2jH7LUi_0S0]--></g></svg>