<?xml version="1.0" encoding="us-ascii" standalone="no"?><svg xmlns="http://www.w3.org/2000/svg" xmlns:xlink="http://www.w3.org/1999/xlink" contentStyleType="text/css" height="797px" preserveAspectRatio="none" style="width:995px;height:797px;background:#FFFFFF;" version="1.1" viewBox="0 0 995 797" width="995px" zoomAndPan="magnify"><defs/><g><!--cluster iza_projektApp--><g id="cluster_iza_projektApp"><path d="M8.5,6 L117.5,6 A3.75,3.75 0 0 1 120,8.5 L127,28.4883 L214.5,28.4883 A2.5,2.5 0 0 1 217,30.9883 L217,116.99 A2.5,2.5 0 0 1 214.5,119.49 L8.5,119.49 A2.5,2.5 0 0 1 6,116.99 L6,8.5 A2.5,2.5 0 0 1 8.5,6 " fill="none" style="stroke:#000000;stroke-width:1.5;"/><line style="stroke:#000000;stroke-width:1.5;" x1="6" x2="127" y1="28.4883" y2="28.4883"/><text fill="#000000" font-family="sans-serif" font-size="14" font-weight="bold" lengthAdjust="spacing" textLength="108" x="10" y="21.5352">iza_projektApp</text></g><!--cluster Views--><g id="cluster_Views"><path d="M125.5,176.49 L169.5,176.49 A3.75,3.75 0 0 1 172,178.99 L179,198.9783 L491.5,198.9783 A2.5,2.5 0 0 1 494,201.4783 L494,394.97 A2.5,2.5 0 0 1 491.5,397.47 L125.5,397.47 A2.5,2.5 0 0 1 123,394.97 L123,178.99 A2.5,2.5 0 0 1 125.5,176.49 " fill="none" style="stroke:#000000;stroke-width:1.5;"/><line style="stroke:#000000;stroke-width:1.5;" x1="123" x2="179" y1="198.9783" y2="198.9783"/><text fill="#000000" font-family="sans-serif" font-size="14" font-weight="bold" lengthAdjust="spacing" textLength="43" x="127" y="192.0252">Views</text></g><!--cluster Components--><g id="cluster_Components"><path d="M223.5,446.47 L315.5,446.47 A3.75,3.75 0 0 1 318,448.97 L325,468.9583 L985.5,468.9583 A2.5,2.5 0 0 1 988,471.4583 L988,788.43 A2.5,2.5 0 0 1 985.5,790.93 L223.5,790.93 A2.5,2.5 0 0 1 221,788.43 L221,448.97 A2.5,2.5 0 0 1 223.5,446.47 " fill="none" style="stroke:#000000;stroke-width:1.5;"/><line style="stroke:#000000;stroke-width:1.5;" x1="221" x2="325" y1="468.9583" y2="468.9583"/><text fill="#000000" font-family="sans-serif" font-size="14" font-weight="bold" lengthAdjust="spacing" textLength="91" x="225" y="462.0052">Components</text></g><!--entity iza_projektApp--><g id="elem_iza_projektApp"><rect fill="#F1F1F1" height="46.4883" rx="2.5" ry="2.5" style="stroke:#181818;stroke-width:0.5;" width="144" x="30" y="49"/><rect fill="#F1F1F1" height="10" style="stroke:#181818;stroke-width:0.5;" width="15" x="154" y="54"/><rect fill="#F1F1F1" height="2" style="stroke:#181818;stroke-width:0.5;" width="4" x="152" y="56"/><rect fill="#F1F1F1" height="2" style="stroke:#181818;stroke-width:0.5;" width="4" x="152" y="60"/><text fill="#000000" font-family="sans-serif" font-size="14" lengthAdjust="spacing" textLength="104" x="45" y="82.5352">iza_projektApp</text></g><!--entity ContentView--><g id="elem_ContentView"><rect fill="#F1F1F1" height="46.4883" rx="2.5" ry="2.5" style="stroke:#181818;stroke-width:0.5;" width="127" x="145.5" y="211.49"/><rect fill="#F1F1F1" height="10" style="stroke:#181818;stroke-width:0.5;" width="15" x="252.5" y="216.49"/><rect fill="#F1F1F1" height="2" style="stroke:#181818;stroke-width:0.5;" width="4" x="250.5" y="218.49"/><rect fill="#F1F1F1" height="2" style="stroke:#181818;stroke-width:0.5;" width="4" x="250.5" y="222.49"/><text fill="#000000" font-family="sans-serif" font-size="14" lengthAdjust="spacing" textLength="87" x="160.5" y="245.0252">ContentView</text></g><!--entity GrainyTextureView--><g id="elem_GrainyTextureView"><rect fill="#F1F1F1" height="46.4883" rx="2.5" ry="2.5" style="stroke:#181818;stroke-width:0.5;" width="170" x="308" y="211.49"/><rect fill="#F1F1F1" height="10" style="stroke:#181818;stroke-width:0.5;" width="15" x="458" y="216.49"/><rect fill="#F1F1F1" height="2" style="stroke:#181818;stroke-width:0.5;" width="4" x="456" y="218.49"/><rect fill="#F1F1F1" height="2" style="stroke:#181818;stroke-width:0.5;" width="4" x="456" y="222.49"/><text fill="#000000" font-family="sans-serif" font-size="14" lengthAdjust="spacing" textLength="130" x="323" y="245.0252">GrainyTextureView</text></g><!--entity NewEventDrawer--><g id="elem_NewEventDrawer"><rect fill="#F1F1F1" height="46.4883" rx="2.5" ry="2.5" style="stroke:#181818;stroke-width:0.5;" width="155" x="139.5" y="334.98"/><rect fill="#F1F1F1" height="10" style="stroke:#181818;stroke-width:0.5;" width="15" x="274.5" y="339.98"/><rect fill="#F1F1F1" height="2" style="stroke:#181818;stroke-width:0.5;" width="4" x="272.5" y="341.98"/><rect fill="#F1F1F1" height="2" style="stroke:#181818;stroke-width:0.5;" width="4" x="272.5" y="345.98"/><text fill="#000000" font-family="sans-serif" font-size="14" lengthAdjust="spacing" textLength="115" x="154.5" y="368.5152">NewEventDrawer</text></g><!--entity EventDetailView--><g id="elem_EventDetailView"><rect fill="#F1F1F1" height="46.4883" rx="2.5" ry="2.5" style="stroke:#181818;stroke-width:0.5;" width="148" x="330" y="334.98"/><rect fill="#F1F1F1" height="10" style="stroke:#181818;stroke-width:0.5;" width="15" x="458" y="339.98"/><rect fill="#F1F1F1" height="2" style="stroke:#181818;stroke-width:0.5;" width="4" x="456" y="341.98"/><rect fill="#F1F1F1" height="2" style="stroke:#181818;stroke-width:0.5;" width="4" x="456" y="345.98"/><text fill="#000000" font-family="sans-serif" font-size="14" lengthAdjust="spacing" textLength="108" x="345" y="368.5152">EventDetailView</text></g><!--entity EventDashboard--><g id="elem_EventDashboard"><rect fill="#F1F1F1" height="46.4883" rx="2.5" ry="2.5" style="stroke:#181818;stroke-width:0.5;" width="152" x="384" y="481.47"/><rect fill="#F1F1F1" height="10" style="stroke:#181818;stroke-width:0.5;" width="15" x="516" y="486.47"/><rect fill="#F1F1F1" height="2" style="stroke:#181818;stroke-width:0.5;" width="4" x="514" y="488.47"/><rect fill="#F1F1F1" height="2" style="stroke:#181818;stroke-width:0.5;" width="4" x="514" y="492.47"/><text fill="#000000" font-family="sans-serif" font-size="14" lengthAdjust="spacing" textLength="112" x="399" y="515.0052">EventDashboard</text></g><!--entity EventDashboardOptions--><g id="elem_EventDashboardOptions"><rect fill="#F1F1F1" height="46.4883" rx="2.5" ry="2.5" style="stroke:#181818;stroke-width:0.5;" width="206" x="571" y="481.47"/><rect fill="#F1F1F1" height="10" style="stroke:#181818;stroke-width:0.5;" width="15" x="757" y="486.47"/><rect fill="#F1F1F1" height="2" style="stroke:#181818;stroke-width:0.5;" width="4" x="755" y="488.47"/><rect fill="#F1F1F1" height="2" style="stroke:#181818;stroke-width:0.5;" width="4" x="755" y="492.47"/><text fill="#000000" font-family="sans-serif" font-size="14" lengthAdjust="spacing" textLength="166" x="586" y="515.0052">EventDashboardOptions</text></g><!--entity EventItem--><g id="elem_EventItem"><rect fill="#F1F1F1" height="46.4883" rx="2.5" ry="2.5" style="stroke:#181818;stroke-width:0.5;" width="107" x="415.5" y="604.95"/><rect fill="#F1F1F1" height="10" style="stroke:#181818;stroke-width:0.5;" width="15" x="502.5" y="609.95"/><rect fill="#F1F1F1" height="2" style="stroke:#181818;stroke-width:0.5;" width="4" x="500.5" y="611.95"/><rect fill="#F1F1F1" height="2" style="stroke:#181818;stroke-width:0.5;" width="4" x="500.5" y="615.95"/><text fill="#000000" font-family="sans-serif" font-size="14" lengthAdjust="spacing" textLength="67" x="430.5" y="638.4852">EventItem</text></g><!--entity EventDetails--><g id="elem_EventDetails"><rect fill="#F1F1F1" height="46.4883" rx="2.5" ry="2.5" style="stroke:#181818;stroke-width:0.5;" width="123" x="236.5" y="728.44"/><rect fill="#F1F1F1" height="10" style="stroke:#181818;stroke-width:0.5;" width="15" x="339.5" y="733.44"/><rect fill="#F1F1F1" height="2" style="stroke:#181818;stroke-width:0.5;" width="4" x="337.5" y="735.44"/><rect fill="#F1F1F1" height="2" style="stroke:#181818;stroke-width:0.5;" width="4" x="337.5" y="739.44"/><text fill="#000000" font-family="sans-serif" font-size="14" lengthAdjust="spacing" textLength="83" x="251.5" y="761.9752">EventDetails</text></g><!--entity EventForm--><g id="elem_EventForm"><rect fill="#F1F1F1" height="46.4883" rx="2.5" ry="2.5" style="stroke:#181818;stroke-width:0.5;" width="113" x="236.5" y="481.47"/><rect fill="#F1F1F1" height="10" style="stroke:#181818;stroke-width:0.5;" width="15" x="329.5" y="486.47"/><rect fill="#F1F1F1" height="2" style="stroke:#181818;stroke-width:0.5;" width="4" x="327.5" y="488.47"/><rect fill="#F1F1F1" height="2" style="stroke:#181818;stroke-width:0.5;" width="4" x="327.5" y="492.47"/><text fill="#000000" font-family="sans-serif" font-size="14" lengthAdjust="spacing" textLength="73" x="251.5" y="515.0052">EventForm</text></g><!--entity EventDateBadge--><g id="elem_EventDateBadge"><rect fill="#F1F1F1" height="46.4883" rx="2.5" ry="2.5" style="stroke:#181818;stroke-width:0.5;" width="150" x="394" y="728.44"/><rect fill="#F1F1F1" height="10" style="stroke:#181818;stroke-width:0.5;" width="15" x="524" y="733.44"/><rect fill="#F1F1F1" height="2" style="stroke:#181818;stroke-width:0.5;" width="4" x="522" y="735.44"/><rect fill="#F1F1F1" height="2" style="stroke:#181818;stroke-width:0.5;" width="4" x="522" y="739.44"/><text fill="#000000" font-family="sans-serif" font-size="14" lengthAdjust="spacing" textLength="110" x="409" y="761.9752">EventDateBadge</text></g><!--entity EventProgressBar--><g id="elem_EventProgressBar"><rect fill="#F1F1F1" height="46.4883" rx="2.5" ry="2.5" style="stroke:#181818;stroke-width:0.5;" width="159" x="578.5" y="728.44"/><rect fill="#F1F1F1" height="10" style="stroke:#181818;stroke-width:0.5;" width="15" x="717.5" y="733.44"/><rect fill="#F1F1F1" height="2" style="stroke:#181818;stroke-width:0.5;" width="4" x="715.5" y="735.44"/><rect fill="#F1F1F1" height="2" style="stroke:#181818;stroke-width:0.5;" width="4" x="715.5" y="739.44"/><text fill="#000000" font-family="sans-serif" font-size="14" lengthAdjust="spacing" textLength="119" x="593.5" y="761.9752">EventProgressBar</text></g><!--entity EventTypeBadge--><g id="elem_EventTypeBadge"><rect fill="#F1F1F1" height="46.4883" rx="2.5" ry="2.5" style="stroke:#181818;stroke-width:0.5;" width="152" x="772" y="728.44"/><rect fill="#F1F1F1" height="10" style="stroke:#181818;stroke-width:0.5;" width="15" x="904" y="733.44"/><rect fill="#F1F1F1" height="2" style="stroke:#181818;stroke-width:0.5;" width="4" x="902" y="735.44"/><rect fill="#F1F1F1" height="2" style="stroke:#181818;stroke-width:0.5;" width="4" x="902" y="739.44"/><text fill="#000000" font-family="sans-serif" font-size="14" lengthAdjust="spacing" textLength="112" x="787" y="761.9752">EventTypeBadge</text></g><!--entity CustomSearchBar--><g id="elem_CustomSearchBar"><rect fill="#F1F1F1" height="46.4883" rx="2.5" ry="2.5" style="stroke:#181818;stroke-width:0.5;" width="161" x="811.5" y="481.47"/><rect fill="#F1F1F1" height="10" style="stroke:#181818;stroke-width:0.5;" width="15" x="952.5" y="486.47"/><rect fill="#F1F1F1" height="2" style="stroke:#181818;stroke-width:0.5;" width="4" x="950.5" y="488.47"/><rect fill="#F1F1F1" height="2" style="stroke:#181818;stroke-width:0.5;" width="4" x="950.5" y="492.47"/><text fill="#000000" font-family="sans-serif" font-size="14" lengthAdjust="spacing" textLength="121" x="826.5" y="515.0052">CustomSearchBar</text></g><!--link iza_projektApp to ContentView--><g id="link_iza_projektApp_ContentView"><path codeLine="27" d="M209,120.0978 C209,120.3132 209,120.5289 209,120.7451 C209,121.1774 209,121.6112 209,122.0465 C209,123.7876 209,125.5523 209,127.3362 C209,155.88 209,183.38 209,205.05 " fill="none" id="iza_projektApp-to-ContentView" style="stroke:#181818;stroke-width:1.0;"/><polygon fill="#181818" points="209,211.05,213,202.05,209,206.05,205,202.05,209,211.05" style="stroke:#181818;stroke-width:1.0;"/><text fill="#000000" font-family="sans-serif" font-size="13" lengthAdjust="spacing" textLength="54" x="210" y="157.0584">contains</text></g><!--link ContentView to EventDashboard--><g id="link_ContentView_EventDashboard"><path codeLine="28" d="M272.82,253.4 C353.4,276.36 483.15,315.78 496,334.98 C526.41,380.4 498.2256,441.6523 477.7856,476.0423 " fill="none" id="ContentView-to-EventDashboard" style="stroke:#181818;stroke-width:1.0;"/><polygon fill="#181818" points="474.72,481.2,482.7568,475.5071,477.2746,476.9019,475.8798,471.4197,474.72,481.2" style="stroke:#181818;stroke-width:1.0;"/><text fill="#000000" font-family="sans-serif" font-size="13" lengthAdjust="spacing" textLength="54" x="509" y="363.2884">contains</text></g><!--link ContentView to EventDashboardOptions--><g id="link_ContentView_EventDashboardOptions"><path codeLine="29" d="M272.91,253.49 C279.01,255.06 285.12,256.58 291,257.98 C416.99,287.89 471.49,253.33 572,334.98 C621.15,374.9 650.4029,439.6297 664.0329,475.5797 " fill="none" id="ContentView-to-EventDashboardOptions" style="stroke:#181818;stroke-width:1.0;"/><polygon fill="#181818" points="666.16,481.19,666.7096,471.3565,664.3874,476.5147,659.2292,474.1926,666.16,481.19" style="stroke:#181818;stroke-width:1.0;"/><text fill="#000000" font-family="sans-serif" font-size="13" lengthAdjust="spacing" textLength="54" x="629" y="363.2884">contains</text></g><!--link ContentView to NewEventDrawer--><g id="link_ContentView_NewEventDrawer"><path codeLine="30" d="M210.49,258.3 C211.92,280.12 213.6969,307.0129 215.1269,328.7929 " fill="none" id="ContentView-to-NewEventDrawer" style="stroke:#181818;stroke-width:1.0;"/><polygon fill="#181818" points="215.52,334.78,218.9218,325.5373,215.1924,329.7907,210.939,326.0614,215.52,334.78" style="stroke:#181818;stroke-width:1.0;"/><text fill="#000000" font-family="sans-serif" font-size="13" lengthAdjust="spacing" textLength="54" x="215" y="301.5484">contains</text></g><!--link ContentView to EventDetailView--><g id="link_ContentView_EventDetailView"><path codeLine="31" d="M245.22,258.3 C280.14,280.05 327.5874,309.6173 362.5474,331.3973 " fill="none" id="ContentView-to-EventDetailView" style="stroke:#181818;stroke-width:1.0;"/><polygon fill="#181818" points="367.64,334.57,362.1163,326.416,363.3962,331.9261,357.886,333.2061,367.64,334.57" style="stroke:#181818;stroke-width:1.0;"/><text fill="#000000" font-family="sans-serif" font-size="13" lengthAdjust="spacing" textLength="54" x="319" y="301.5484">contains</text></g><!--link EventDetailView to EventForm--><g id="link_EventDetailView_EventForm"><path codeLine="33" d="M386.66,381.8 C365.8,408.94 334.6757,449.4623 313.8757,476.5323 " fill="none" id="EventDetailView-to-EventForm" style="stroke:#181818;stroke-width:1.0;"/><polygon fill="#181818" points="310.22,481.29,318.8754,476.5906,313.2664,477.3252,312.5318,471.7163,310.22,481.29" style="stroke:#181818;stroke-width:1.0;"/><text fill="#000000" font-family="sans-serif" font-size="13" lengthAdjust="spacing" textLength="54" x="362" y="427.0384">contains</text></g><!--link NewEventDrawer to EventForm--><g id="link_NewEventDrawer_EventForm"><path codeLine="34" d="M228.88,381.8 C243.15,408.94 264.1767,448.9099 278.4167,475.9799 " fill="none" id="NewEventDrawer-to-EventForm" style="stroke:#181818;stroke-width:1.0;"/><polygon fill="#181818" points="281.21,481.29,280.56,471.4626,278.8822,476.8649,273.4799,475.1871,281.21,481.29" style="stroke:#181818;stroke-width:1.0;"/><text fill="#000000" font-family="sans-serif" font-size="13" lengthAdjust="spacing" textLength="54" x="254" y="427.0384">contains</text></g><!--link EventDashboard to EventItem--><g id="link_EventDashboard_EventItem"><path codeLine="36" d="M461.67,528.28 C463.29,550.1 465.2749,576.9865 466.8949,598.7665 " fill="none" id="EventDashboard-to-EventItem" style="stroke:#181818;stroke-width:1.0;"/><polygon fill="#181818" points="467.34,604.75,470.6614,595.4781,466.9691,599.7638,462.6834,596.0715,467.34,604.75" style="stroke:#181818;stroke-width:1.0;"/><text fill="#000000" font-family="sans-serif" font-size="13" lengthAdjust="spacing" textLength="54" x="466" y="571.5184">contains</text></g><!--link EventItem to EventDetails--><g id="link_EventItem_EventDetails"><path codeLine="37" d="M437.24,651.76 C406.62,673.52 365.4314,702.7753 334.7714,724.5553 " fill="none" id="EventItem-to-EventDetails" style="stroke:#181818;stroke-width:1.0;"/><polygon fill="#181818" points="329.88,728.03,339.5337,726.0788,333.9562,725.1344,334.9007,719.5569,329.88,728.03" style="stroke:#181818;stroke-width:1.0;"/><text fill="#000000" font-family="sans-serif" font-size="13" lengthAdjust="spacing" textLength="54" x="394" y="695.0084">contains</text></g><!--link EventItem to EventDateBadge--><g id="link_EventItem_EventDateBadge"><path codeLine="38" d="M469,651.76 C469,673.59 469,700.46 469,722.24 " fill="none" id="EventItem-to-EventDateBadge" style="stroke:#181818;stroke-width:1.0;"/><polygon fill="#181818" points="469,728.24,473,719.24,469,723.24,465,719.24,469,728.24" style="stroke:#181818;stroke-width:1.0;"/><text fill="#000000" font-family="sans-serif" font-size="13" lengthAdjust="spacing" textLength="54" x="470" y="695.0084">contains</text></g><!--link EventItem to EventProgressBar--><g id="link_EventItem_EventProgressBar"><path codeLine="39" d="M504.11,651.76 C537.95,673.52 583.8329,703.0055 617.7129,724.7855 " fill="none" id="EventItem-to-EventProgressBar" style="stroke:#181818;stroke-width:1.0;"/><polygon fill="#181818" points="622.76,728.03,617.3524,719.7985,618.5541,725.3262,613.0264,726.5279,622.76,728.03" style="stroke:#181818;stroke-width:1.0;"/><text fill="#000000" font-family="sans-serif" font-size="13" lengthAdjust="spacing" textLength="54" x="575" y="695.0084">contains</text></g><!--link EventItem to EventTypeBadge--><g id="link_EventItem_EventTypeBadge"><path codeLine="40" d="M522.74,645.53 C555.99,655.71 599.53,669.15 638,681.44 C685.72,696.68 733.6672,712.4847 774.7872,726.1747 " fill="none" id="EventItem-to-EventTypeBadge" style="stroke:#181818;stroke-width:1.0;"/><polygon fill="#181818" points="780.48,728.07,773.2043,721.4319,775.736,726.4906,770.6773,729.0223,780.48,728.07" style="stroke:#181818;stroke-width:1.0;"/><text fill="#000000" font-family="sans-serif" font-size="13" lengthAdjust="spacing" textLength="54" x="690" y="695.0084">contains</text></g><!--link ContentView to CustomSearchBar--><g id="link_ContentView_CustomSearchBar"><path codeLine="42" d="M272.81,253.99 C278.93,255.45 285.07,256.81 291,257.98 C469.09,292.89 532.38,248.64 692,334.98 C765.92,374.96 833.3267,440.9113 867.3167,476.8413 " fill="none" id="ContentView-to-CustomSearchBar" style="stroke:#181818;stroke-width:1.0;"/><polygon fill="#181818" points="871.44,481.2,868.1608,471.9131,868.0039,477.5678,862.3492,477.4109,871.44,481.2" style="stroke:#181818;stroke-width:1.0;"/><text fill="#000000" font-family="sans-serif" font-size="13" lengthAdjust="spacing" textLength="54" x="790" y="363.2884">contains</text></g><!--SRC=[ZP9DJiCm48NtFeNLVI_00ec67x419AfkqP2EKjF4OutTfWLnTsnAWstS1czY-NtFcPbdQ5lgExLJkX72GBs61kL4lSEBONh3jRioPY8_XFIhfiwGHkragelFoBfGsDk_Zegqyz-WPieTWzBxEUxSXh6WFs1_i_MRQuOUEHCF2ZfGxRSrhgGwKeLo3ZwmgrS2NfuL7urJf6s9kNVOdIweQBabBbl0uGoM3PR49wQ6qTeP5FkVxqtHMssie-uPWUjLiFhXfC79wVGoJaPUUBVsjVjsu-E0fKFvF_apldE6DE7nguUuOrJasi27aSTazhkJdCXQ7i0GUmp-7cOrsZ7g6Fe85-K_GWvF8Maa7sFsC6Bs2m00]--></g></svg>